<?xml version="1.0" encoding="utf-8"?>
<!-- Generator: Adobe Illustrator 24.0.1, SVG Export Plug-In . SVG Version: 6.00 Build 0)  -->
<svg version="1.1" id="Layer_1" xmlns="http://www.w3.org/2000/svg" xmlns:xlink="http://www.w3.org/1999/xlink" x="0px" y="0px"
	 viewBox="0 0 800 800" style="enable-background:new 0 0 800 800;" xml:space="preserve">
<path d="M551.6,180.8c-5.1-4.2-10.9-7.5-17.1-10c-6.4-2.4-12.9,2.7-14.2,9.3c-7.5,38-41.1,66.6-81.5,66.6h-77.7
	c-22.2,0-43.1-8.7-58.8-24.4c-11.5-11.5-19.5-26.2-22.6-42c-1.3-6.7-8-12-14.4-9.3c-25.8,10.4-42.8,34-42.8,81.2v216.4
	c0,66.6,39.7,88.8,88.8,88.8h177.6c49.1,0,88.8-22.2,88.8-88.8V252.3C577.6,216.1,567.6,193.9,551.6,180.8z M311.2,341.1H400
	c9.1,0,16.6,7.5,16.6,16.6c0,9.1-7.5,16.6-16.6,16.6h-88.8c-9.1,0-16.6-7.5-16.6-16.6C294.6,348.6,302.1,341.1,311.2,341.1z
	 M488.8,463.2H311.2c-9.1,0-16.6-7.5-16.6-16.6s7.5-16.6,16.6-16.6h177.6c9.1,0,16.6,7.5,16.6,16.6S497.9,463.2,488.8,463.2z
	 M361.2,213.5h77.7c27.5,0,49.9-22.4,49.9-49.9c0-13.8-5.5-26.2-14.7-35.3c-9.1-9.1-21.5-14.7-35.3-14.7h-77.7
	c-27.5,0-49.9,22.4-49.9,49.9c0,13.8,5.5,26.2,14.7,35.3C335,207.9,347.4,213.5,361.2,213.5z M297,680.2h13.8v-46.8H297V680.2z
	 M229.4,662c1.8-4.3,2.7-8.9,2.7-13.9c0-6.3-1.4-12-4.1-17c-2.8-5-6.5-8.9-11.3-11.8c-4.8-2.8-10-4.3-15.8-4.3
	c-5.7,0-11,1.4-15.8,4.3c-4.8,2.8-8.5,6.8-11.3,11.8c-2.8,5-4.1,10.7-4.1,17c0,6.3,1.4,12,4.1,17c2.8,5,6.5,8.9,11.3,11.8
	c4.8,2.8,10,4.3,15.8,4.3c3.3,0,6.6-0.5,9.8-1.6l6,6.9h16.9l-11.7-13.5C225.1,669.9,227.6,666.3,229.4,662z M216.2,655.8
	c-0.9,2.3-2,4.3-3.6,6l-3.1-3.6H195l7.5,8.6c-0.3,0.1-0.8,0.1-1.6,0.1c-3.1,0-5.8-0.8-8.3-2.3c-2.5-1.6-4.5-3.8-6-6.6
	c-1.5-2.8-2.2-6.1-2.2-9.9c0-3.7,0.7-7,2.2-9.9c1.5-2.8,3.5-5,6-6.6c2.5-1.6,5.3-2.3,8.3-2.3c3.1,0,5.8,0.8,8.3,2.3
	c2.5,1.6,4.5,3.8,6,6.6c1.5,2.8,2.2,6.1,2.2,9.9C217.4,650.9,217,653.5,216.2,655.8z M272.2,659.3c0,2.6-0.8,4.7-2.3,6.3
	c-1.6,1.6-3.6,2.4-6.2,2.4c-2.6,0-4.6-0.8-6.2-2.4c-1.6-1.6-2.3-3.7-2.3-6.3v-25.9h-13.8v28.2c0,3.9,0.8,7.4,2.3,10.3
	c1.6,3,3.7,5.2,6.5,6.8c2.8,1.6,5.9,2.4,9.5,2.4c2.9,0,5.5-0.5,7.8-1.5c2.3-1,4.1-2.2,5.3-3.6h0.5l0.9,4.1H286v-46.8h-13.8V659.3z
	 M630.2,656.3c0-4.4-1-8.4-3.1-12.1c-2.1-3.6-4.9-6.5-8.6-8.6c-3.6-2.1-7.7-3.1-12.1-3.1c-4.6,0-8.8,1.1-12.6,3.2
	c-3.7,2.1-6.7,5-8.8,8.7c-2.1,3.7-3.2,7.8-3.2,12.4c0,4.6,1.1,8.7,3.2,12.4c2.1,3.7,5.1,6.6,8.8,8.7c3.7,2.1,7.9,3.2,12.6,3.2
	c4.3,0,8.1-0.8,11.3-2.5c3.2-1.6,5.7-3.6,7.6-5.9c1.8-2.3,3.1-4.4,3.7-6.5h-13.9c-0.7,0.9-1.8,1.7-3.3,2.5c-1.5,0.8-3.2,1.2-5.3,1.2
	c-2.8,0-5.2-0.9-7.2-2.6c-2-1.7-3.2-3.9-3.6-6.5h34.1C630.1,659.4,630.2,657.9,630.2,656.3z M595.7,652.5c0.6-2.6,1.8-4.7,3.7-6.4
	c1.9-1.7,4.3-2.6,7.2-2.6c2.7,0,5,0.9,6.8,2.6c1.8,1.7,2.9,3.9,3.3,6.4H595.7z M528.2,635.7c-3.7-2.1-7.9-3.2-12.6-3.2
	c-4.6,0-8.8,1.1-12.6,3.2c-3.7,2.1-6.6,5-8.8,8.7c-2.1,3.7-3.2,7.8-3.2,12.4c0,4.6,1.1,8.7,3.2,12.4c2.1,3.7,5,6.6,8.8,8.7
	c3.7,2.1,7.9,3.2,12.6,3.2c4.6,0,8.8-1.1,12.6-3.2c3.7-2.1,6.6-5,8.8-8.7c2.1-3.7,3.2-7.8,3.2-12.4c0-4.6-1.1-8.7-3.2-12.4
	C534.8,640.7,531.9,637.8,528.2,635.7z M523.2,665.1c-2,2.1-4.6,3.2-7.6,3.2c-3,0-5.5-1.1-7.6-3.2c-2-2.1-3.1-4.9-3.1-8.3
	c0-3.4,1-6.1,3.1-8.3c2-2.1,4.6-3.2,7.6-3.2c3,0,5.5,1.1,7.6,3.2c2,2.1,3.1,4.9,3.1,8.3C526.3,660.2,525.2,662.9,523.2,665.1z
	 M296.8,626.6h14.5v-12h-14.5V626.6z M466.8,654.5H465L444.8,616H427v64.2h14.7v-38.5h1.8l20.2,38.5h17.9V616h-14.7V654.5z
	 M565.9,618.9H552v14.5h-7.3v13.1h7.3v20.9c0,4.1,1.2,7.2,3.5,9.4c2.3,2.2,5.7,3.3,10.2,3.3h10.7v-12.5h-7.3c-1.2,0-2-0.2-2.5-0.7
	c-0.5-0.5-0.7-1.3-0.7-2.5v-18h10.5v-13.1h-10.5V618.9z M421.3,633.4h-15.7l-15.7,20.7V616h-13.8v64.2h13.8v-21.6l16.6,21.6h15.7
	l-18.6-23.8L421.3,633.4z M344.2,645.3c2.6,0,4.7,0.6,6.1,1.9c1.5,1.3,2.5,2.7,3,4.4h14c-0.6-3.2-1.8-6.2-3.7-9.1
	c-1.9-2.9-4.5-5.3-7.8-7.2c-3.3-1.9-7.2-2.8-11.7-2.8c-4.6,0-8.8,1.1-12.6,3.2c-3.7,2.1-6.7,5-8.8,8.7c-2.1,3.7-3.2,7.8-3.2,12.4
	c0,4.6,1.1,8.7,3.2,12.4c2.1,3.7,5.1,6.6,8.8,8.7c3.7,2.1,7.9,3.2,12.6,3.2c4.6,0,8.5-0.9,11.8-2.8c3.3-1.9,5.9-4.3,7.7-7.2
	c1.9-2.9,3.1-6,3.7-9.3h-14c-0.6,1.8-1.6,3.4-3,4.7c-1.5,1.3-3.5,1.9-6.1,1.9c-3,0-5.5-1.1-7.6-3.3c-2-2.2-3.1-4.9-3.1-8.3
	c0-3.4,1-6.1,3.1-8.3C338.6,646.4,341.2,645.3,344.2,645.3z"/>
</svg>
